# xmcd CD database file
#
# Track frame offsets:
#	150
#	13887
#	25682
#	37057
#	56622
#	68947
#	79565
#	92575
#	113235
#	123485
#	142980
#	161142
#	175330
#
# Disc length: 2533 seconds
#
# Revision: 0
# Processed by: cddbd v1.5.1PL0 Copyright (c) Steve Scherf et al.
# Submitted via: CDex 1.51
#
DISCID=ac09e30d
DTITLE=compilation - ASPIRIN CHILLOUT GREEN
DYEAR=2003
DGENRE=Jazz
TTITLE0=ABOUT LOVE-Ben Sidran
TTITLE1=FLY ME TO THE MOON-Julie London
TTITLE2=ELA E CARIOCA-Marcos Valle
TTITLE3=OFF ON YOUR LOVE-Perry&Sanlin
TTITLE4=NOTHING SWEETER THAN MY BABY'S LOVE-Leon Ware
TTITLE5=OH, CULUCUTTA-The Dave Pell Singers
TTITLE6=CORCOVADO(QUIET NIGHTS)-Blossom Dearie
TTITLE7=IF I EVER LOSE THIS HEAVEN-Nancy Wilson
TTITLE8=RUAS DO RIO-Tania Maria
TTITLE9=DU SER EN MAN-Anne-Lie, Ryde
TTITLE10=SO MUCH LOVE-Stylus
TTITLE11=MR, MELODY-Natalie Cole
TTITLE12=LAUGHTER IN THE RAIN-Lea Roberts
EXTD=YEAR: 2003
EXTT0=
EXTT1=
EXTT2=
EXTT3=
EXTT4=
EXTT5=
EXTT6=
EXTT7=
EXTT8=
EXTT9=
EXTT10=
EXTT11=
EXTT12=
PLAYORDER=
